<svg t="1675340516770" class="icon" viewBox="0 0 1024 1024" version="1.1" xmlns="http://www.w3.org/2000/svg" p-id="3768" width="200" height="200"><path d="M578.656 651.648S512 704.96 487.776 718.944a300.512 300.512 0 0 1-59.104 26.08 247.808 247.808 0 0 1-46.88 10.688c-13.408 1.472-24.512 2.4-33.312 2.848a7.232 7.232 0 0 1-3.136 0.64h-10.08a249.92 249.92 0 0 1-65.088-8.224 164.768 164.768 0 0 1-53.12-24.192 117.856 117.856 0 0 1-35.84-40.256c-8.832-16.16-13.216-34.912-13.216-56.288 0.416-18.432 5.44-35.2 15.04-50.304a133.504 133.504 0 0 1 37.44-38.4 177.536 177.536 0 0 1 50.976-23.904 172.384 172.384 0 0 1 56.288-6.88c18.432 0.832 36.256 3.008 53.44 6.56a485.44 485.44 0 0 1 49.376 12.928c15.712 5.024 30.592 10.464 44.64 16.32 14.08 5.92 27.36 11.552 39.936 17.024a615.04 615.04 0 0 0 32.704 12.576c12.16-15.52 22.4-30.72 30.816-45.6a473.504 473.504 0 0 0 33.344-72c2.944-8.384 4.8-14.24 5.664-17.6h-272.96v-30.208H473.6v-69.76H294.368v-30.208h179.264v-56.64c0-3.744 2.08-6.784 6.272-9.088 4.192-2.304 9.024-3.872 14.464-4.736 6.304-1.248 13.44-1.888 21.376-1.888h48.416v72.32h184.288v30.208H564.16v69.792h146.432l0.096-0.64v0.64h-0.096c-2.944 18.688-7.936 38.4-14.976 59.136a455.52 455.52 0 0 1-26.112 61.632 432.96 432.96 0 0 1-45.6 71.04s144.32 69.088 296.704 93.376C945.888 639.84 960 577.536 960 512c0-247.424-200.576-448-448-448S64 264.576 64 512c0 247.392 200.576 448 448 448 153.472 0 288.896-77.184 369.664-194.848-82.048-17.888-169.216-54.08-303.04-113.504zM224 621.12c-1.696 76.704 85.632 82.4 99.104 82.816 44.544 1.344 80.48-15.36 108.48-31.872 27.968-16.512 73.632-59.2 75.36-60.64 1.664-1.472 3.36-3.04 5.024-4.704-12.224-6.72-24.224-12.864-36-18.528-11.776-5.632-71.68-37.6-124.8-43.04C250.496 534.784 224.512 597.824 224 621.12z" p-id="3769"></path></svg>