<svg t="1660181796252" class="icon" viewBox="0 0 1024 1024" version="1.1" xmlns="http://www.w3.org/2000/svg" p-id="6419" width="64" height="64"><path d="M48.505263 692.547368c-10.778947-2.694737-21.557895 2.694737-24.252631 13.473685-2.694737 10.778947 2.694737 21.557895 13.473684 24.252631 110.484211 32.336842 194.021053 123.957895 220.968421 234.442105 2.694737 8.084211 10.778947 13.473684 18.863158 13.473685h5.389473c10.778947-2.694737 16.168421-13.473684 13.473685-21.557895-29.642105-126.652632-123.957895-226.357895-247.91579-264.084211zM45.810526 447.326316c-10.778947-2.694737-18.863158 5.389474-21.557894 16.168421-2.694737 10.778947 5.389474 18.863158 16.168421 21.557895 239.831579 40.421053 428.463158 239.831579 460.8 482.357894 0 10.778947 8.084211 16.168421 18.863158 16.168421h2.694736c10.778947 0 18.863158-10.778947 16.168421-21.557894-32.336842-258.694737-234.442105-471.578947-493.136842-514.694737z" p-id="6420"></path><path d="M45.810526 223.663158c-10.778947 0-18.863158 8.084211-21.557894 16.168421 0 10.778947 5.389474 18.863158 16.168421 21.557895 361.094737 43.115789 646.736842 336.842105 679.073684 697.936842 0 10.778947 8.084211 16.168421 18.863158 16.168421h2.694737c10.778947 0 18.863158-10.778947 16.168421-21.557895C722.189474 579.368421 423.073684 269.473684 45.810526 223.663158zM994.357895 45.810526c-8.084211-8.084211-18.863158-8.084211-26.947369 0l-269.473684 269.473685-150.905263-150.905264c-8.084211-8.084211-18.863158-8.084211-26.947368 0s-8.084211 18.863158 0 26.947369l164.378947 164.378947c2.694737 2.694737 8.084211 5.389474 13.473684 5.389474s10.778947-2.694737 13.473684-5.389474L994.357895 72.757895c5.389474-5.389474 5.389474-18.863158 0-26.947369z" p-id="6421"></path></svg>