<?xml version="1.0" encoding="UTF-8"?>
<svg width="94px" height="66px" viewBox="0 0 94 66" version="1.1" xmlns="http://www.w3.org/2000/svg" xmlns:xlink="http://www.w3.org/1999/xlink">
    <g id="页面-1" stroke="none" stroke-width="1" fill="none" fill-rule="evenodd">
        <g id="画板" transform="translate(-64.000000, -69.000000)" fill="#F8FCFD">
            <g id="编组-6备份" transform="translate(64.000000, 69.000000)">
                <g id="编组-4" transform="translate(2.905852, 0.000000)">
                    <ellipse id="椭圆形备份-10" cx="7.3888386" cy="16.7198343" rx="7.3888386" ry="7.46421174"></ellipse>
                    <ellipse id="椭圆形备份-11" cx="44.0374781" cy="7.46421174" rx="7.3888386" ry="7.46421174"></ellipse>
                    <ellipse id="椭圆形备份-12" cx="80.6861176" cy="16.7198343" rx="7.3888386" ry="7.46421174"></ellipse>
                </g>
                <path d="M25.9080712,29.1601872 C24.9228927,23.3878635 26.006589,20.0040875 29.1591602,19.0088592 C33.8880169,17.5160169 37.7302129,21.6959755 39.2079807,29.1601872 C39.2419523,19.3273323 36.9930277,14.1123363 32.4612067,13.5151994 C28.7175284,13.2630749 26.1560644,13.9331952 24.7768145,15.5255604 C22.2153505,17.9141082 22.592436,22.4589838 25.9080712,29.1601872 Z" id="路径-12" opacity="0.5"></path>
                <path d="M56.6887389,29.1863431 C55.7035605,23.4140194 56.7872568,20.0302434 59.9398279,19.0350152 C64.6686846,17.5421728 68.5108807,21.7221314 69.9886484,29.1863431 C70.0226201,19.3534882 67.7736954,14.1384923 63.2418744,13.5413553 C59.4981962,13.2892308 56.9367321,13.9593512 55.5574823,15.5517163 C52.9960182,17.9402641 53.3731038,22.4851397 56.6887389,29.1863431 Z" id="路径-12备份-2" opacity="0.5" transform="translate(61.935967, 21.338002) scale(-1, 1) translate(-61.935967, -21.338002) "></path>
                <path d="M46.9433303,55.5735445 C42.8055807,55.5735445 38.3722775,44.8250796 38.3722775,29.2995192 C38.3722775,18.9491455 36.2048849,13.6744359 31.8700996,13.4753903 C38.5693132,13.077299 43.5937235,15.6648924 46.9433303,21.2381705 L46.9433303,21.2381705 L46.9433303,21.2779796 L46.9433303,21.2779796 C50.2929372,15.7047015 55.3173474,13.1171081 62.0165611,13.5151994 C57.6817758,13.714245 55.5143831,18.9889547 55.5143831,29.3393283 C55.5143831,44.8648887 51.0810799,55.6133536 46.9433303,55.6133536 Z" id="形状结合"></path>
                <path d="M23.5946003,61.2463454 C19.4568507,61.2463454 15.0235475,50.4978805 15.0235475,34.9723201 C15.0235475,24.6219465 12.8561549,19.3472368 8.52136957,19.1481912 C15.2205832,18.7500999 20.2449935,21.3376933 23.5946003,26.9109714 L23.5946003,26.9109714 L23.5946003,26.9507805 L23.5946003,26.9507805 C26.9442072,21.3775024 31.9686174,18.789909 38.6678311,19.1880003 C34.3330458,19.387046 32.1656531,24.6617556 32.1656531,35.0121292 C32.1656531,50.5376896 27.7323499,61.2861545 23.5946003,61.2861545 Z" id="形状结合备份" transform="translate(23.594600, 40.197268) rotate(-30.000000) translate(-23.594600, -40.197268) "></path>
                <path d="M69.4053997,61.2463454 C65.2676501,61.2463454 60.8343469,50.4978805 60.8343469,34.9723201 C60.8343469,24.6219465 58.6669542,19.3472368 54.3321689,19.1481912 C61.0313826,18.7500999 66.0557928,21.3376933 69.4053997,26.9109714 L69.4053997,26.9109714 L69.4053997,26.9507805 L69.4053997,26.9507805 C72.7550065,21.3775024 77.7794168,18.789909 84.4786304,19.1880003 C80.1438451,19.387046 77.9764525,24.6617556 77.9764525,35.0121292 C77.9764525,50.5376896 73.5431493,61.2861545 69.4053997,61.2861545 Z" id="形状结合备份-2" transform="translate(69.405400, 40.197268) rotate(-330.000000) translate(-69.405400, -40.197268) "></path>
            </g>
        </g>
    </g>
</svg>