<svg t="1663137038045" class="icon" viewBox="0 0 1024 1024" version="1.1" xmlns="http://www.w3.org/2000/svg" p-id="10198" width="128" height="128"><path d="M562.052464 901.929804c0 96.596012-74.087369 46.729278-74.087369 46.729278L167.130973 678.731372 117.581464 678.731372c-30.697139 0-55.56348-25.320689-55.56348-56.56632L62.017984 395.935588c0-31.246655 24.867364-56.561204 55.56348-56.561204l59.268872 0L487.965096 75.444273c0 0 74.090439-50.27401 74.090439 47.12632l0 779.35921L562.052464 901.929804zM728.722438 659.865699c92.612281-75.403341 86.429465-218.377636 0-282.789645-33.938973-20.417005-55.54813 47.137577-55.54813 47.137577s86.419232 108.403942 0 188.525748C656.188448 634.737392 688.600649 680.300101 728.722438 659.865699L728.722438 659.865699zM775.030114 216.839607c-12.343119-11.008728-72.526827 29.846772-37.036521 65.974597 183.65174 155.542542 186.728822 301.649178 0 461.890742-27.791973 26.711362 9.244548 76.995605 37.036521 65.98176C1029.662465 692.851974 1018.875794 326.807161 775.030114 216.839607L775.030114 216.839607zM775.030114 216.839607" p-id="10199"></path></svg>