<svg t="1660181732156" class="icon" viewBox="0 0 1024 1024" version="1.1" xmlns="http://www.w3.org/2000/svg" p-id="5442" width="64" height="64"><path d="M67.368421 689.852632c-10.778947-2.694737-21.557895 2.694737-24.252632 13.473684-2.694737 10.778947 2.694737 21.557895 13.473685 24.252631 115.873684 35.031579 202.105263 129.347368 229.052631 245.221053 2.694737 8.084211 10.778947 13.473684 18.863158 13.473684h5.389474c10.778947-2.694737 16.168421-13.473684 13.473684-21.557895-32.336842-132.042105-129.347368-237.136842-256-274.863157zM64.673684 433.852632c-10.778947-2.694737-18.863158 5.389474-21.557895 16.168421-2.694737 10.778947 5.389474 18.863158 16.168422 21.557894 250.610526 43.115789 447.326316 247.915789 476.968421 501.221053 0 10.778947 8.084211 16.168421 18.863157 16.168421h2.694737c10.778947 0 18.863158-10.778947 16.168421-21.557895-32.336842-266.778947-242.526316-487.747368-509.305263-533.557894z" p-id="5443"></path><path d="M64.673684 202.105263c-10.778947 0-21.557895 8.084211-21.557895 16.168421s5.389474 18.863158 16.168422 21.557895c374.568421 45.810526 670.989474 350.315789 706.021052 727.578947 0 10.778947 8.084211 16.168421 18.863158 16.168421h2.694737c10.778947 0 18.863158-10.778947 16.168421-21.557894C765.305263 571.284211 455.410526 250.610526 64.673684 202.105263zM843.452632 202.105263l134.736842-134.736842c8.084211-8.084211 8.084211-18.863158 0-26.947368s-18.863158-8.084211-26.947369 0l-134.736842 134.736842-134.736842-134.736842c-8.084211-8.084211-18.863158-8.084211-26.947368 0s-8.084211 18.863158 0 26.947368l134.736842 134.736842-134.736842 134.736842c-8.084211 8.084211-8.084211 18.863158 0 26.947369 2.694737 2.694737 8.084211 5.389474 13.473684 5.389473s10.778947-2.694737 13.473684-5.389473l134.736842-134.736842 134.736842 134.736842c2.694737 2.694737 8.084211 5.389474 13.473684 5.389473s10.778947-2.694737 13.473685-5.389473c8.084211-8.084211 8.084211-18.863158 0-26.947369l-134.736842-134.736842z" p-id="5444"></path></svg>