<svg t="1659616160204" class="icon" viewBox="0 0 1024 1024" version="1.1" xmlns="http://www.w3.org/2000/svg" p-id="24323" width="64" height="64"><path d="M717.2 870c-10.1 0-20.2-3-29-8.8L493 731.6c-11.7-7.8-14.9-23.6-7.1-35.2 7.8-11.8 23.5-14.8 35.2-7.1L716.3 819l86-677.3L209 479.1l184.1 125.1c11.7 7.8 14.9 23.6 7.1 35.2-7.8 11.8-23.5 14.8-35.2 7.1L180.8 524.2c-15.2-10.1-24-27-23.4-45.4 0.6-18.3 10.4-34.7 26.3-43.8L774.6 95.8c17.4-9.9 38.5-9.2 55.2 1.8 16.6 11.1 25.5 30.3 23 50.1L769.3 824c-2.3 18.2-13.5 33.6-30.2 41.3-7 3.1-14.5 4.7-21.9 4.7z"  p-id="24324"></path><path d="M381.6 870c-14 0-25.4-11.4-25.4-25.4V727.3l433-607.3c8.2-11.4 24.1-14 35.4-6 11.4 8.1 14.1 24 6 35.4L407 743.6v101c0 14-11.4 25.4-25.4 25.4z" p-id="24325"></path></svg>