<svg t="1659662678000" class="icon" viewBox="0 0 1024 1024" version="1.1" xmlns="http://www.w3.org/2000/svg" p-id="26389" width="64" height="64"><path d="M510 159c47.951 0 94.436 9.378 138.164 27.873 42.266 17.877 80.237 43.482 112.859 76.104s58.227 70.593 76.104 112.859C855.622 419.564 865 466.049 865 514s-9.378 94.436-27.873 138.164c-17.877 42.266-43.482 80.237-76.104 112.859s-70.593 58.227-112.859 76.104C604.436 859.622 557.951 869 510 869s-94.436-9.378-138.164-27.873c-42.266-17.877-80.237-43.482-112.859-76.104s-58.227-70.593-76.104-112.859C164.378 608.436 155 561.951 155 514s9.378-94.436 27.873-138.164c17.877-42.266 43.482-80.237 76.104-112.859s70.593-58.227 112.859-76.104C415.564 168.378 462.049 159 510 159m0-60C280.802 99 95 284.802 95 514s185.802 415 415 415 415-185.802 415-415S739.198 99 510 99z" p-id="26390"></path><path d="M342.102 618.3C373.429 696.51 436.855 750 510 750s136.571-53.49 167.898-131.7H342.102z" fill="#FFEABB" p-id="26391"></path><path d="M677.898 618.3h0.005m-0.005 0C646.571 696.51 583.145 750 510 750s-136.571-53.49-167.898-131.7h335.796m0.005-60H342.102a60.001 60.001 0 0 0-55.698 82.31c19.474 48.618 49.374 90.012 86.468 119.708C413.471 792.82 460.889 810 510 810s96.529-17.18 137.129-49.682c36.718-29.395 66.387-70.251 85.872-118.231a59.8 59.8 0 0 0 4.9-23.787c0-33.113-26.821-59.961-59.925-60h-0.073z m-0.005 120h0.005-0.005z"  p-id="26392"></path><path d="M483.031 456.122h-60c0-38.114-31.008-69.122-69.122-69.122-38.114 0-69.123 31.008-69.123 69.122h-60C224.786 384.924 282.71 327 353.909 327s129.122 57.924 129.122 129.122zM795.214 456.122h-60c0-38.114-31.008-69.122-69.122-69.122s-69.123 31.008-69.123 69.122h-60c0-71.198 57.925-129.122 129.123-129.122s129.122 57.924 129.122 129.122z" p-id="26393"></path></svg>