<svg t="1659576964220" class="icon" viewBox="0 0 1024 1024" version="1.1" xmlns="http://www.w3.org/2000/svg" p-id="13684" width="200" height="200"><path d="M874.7 106.7H149.3c-46.9 0-85.3 38.4-85.3 85.3v469.3c0 46.9 38.4 85.3 85.3 85.3H256l128 170.7 170.7-170.7h320c46.9 0 85.3-38.4 85.3-85.3V192c0-46.9-38.4-85.3-85.3-85.3zM896 640c0 23.5-19.2 42.7-42.7 42.7h-320L394.7 832 277.3 682.7H170.7c-23.5 0-42.7-19.2-42.7-42.7V213.3c0-23.5 19.2-42.7 42.7-42.7h682.7c23.5 0 42.7 19.2 42.7 42.7V640z" fill="#5a5e66" p-id="13685"></path><path d="M757.3 320h-448c-17.6 0-32 14.4-32 32s14.4 32 32 32h448c17.6 0 32-14.4 32-32s-14.4-32-32-32zM757.3 512H544c-17.6 0-32 14.4-32 32s14.4 32 32 32h213.3c17.6 0 32-14.4 32-32s-14.4-32-32-32z" fill="#5a5e66" p-id="13686"></path></svg>