<?xml version="1.0" encoding="UTF-8"?>
<svg width="48px" height="48px" viewBox="0 0 48 48" version="1.1" xmlns="http://www.w3.org/2000/svg" xmlns:xlink="http://www.w3.org/1999/xlink">
    <title>TXT</title>
    <g id="法律咨询" stroke="none" stroke-width="1" fill="none" fill-rule="evenodd">
        <g id="法律咨询-指定律师-聊天结束" transform="translate(-1557.000000, -765.000000)" fill-rule="nonzero">
            <g id="TXT" transform="translate(1557.000000, 765.000000)">
                <rect id="矩形" fill="#000000" opacity="0" x="0" y="0" width="48" height="48"></rect>
                <path d="M7.5,0 L31.5,0 L43.5,12 L43.5,45 C43.5,46.6569 42.1569,48 40.5,48 L7.5,48 C5.8431,48 4.5,46.6569 4.5,45 L4.5,3 C4.5,1.3431 5.8431,0 7.5,0 Z" id="路径" fill="#F2F2F2"></path>
                <path d="M24.375,35.25 C24.9963203,35.25 25.5,35.7536797 25.5,36.375 C25.5,36.9963203 24.9963203,37.5 24.375,37.5 L11.625,37.5 C11.0036797,37.5 10.5,36.9963203 10.5,36.375 C10.5,35.7536797 11.0036797,35.25 11.625,35.25 L24.375,35.25 Z M36.375,27.75 C36.9963203,27.75 37.5,28.2536797 37.5,28.875 C37.5,29.4963203 36.9963203,30 36.375,30 L11.625,30 C11.0036797,30 10.5,29.4963203 10.5,28.875 C10.5,28.2536797 11.0036797,27.75 11.625,27.75 L36.375,27.75 Z M36.375,20.25 C36.9963203,20.25 37.5,20.7536797 37.5,21.375 C37.5,21.9963203 36.9963203,22.5 36.375,22.5 L11.625,22.5 C11.0036797,22.5 10.5,21.9963203 10.5,21.375 C10.5,20.7536797 11.0036797,20.25 11.625,20.25 L36.375,20.25 Z" id="形状结合" fill="#AFAFAF"></path>
                <path d="M31.5,0 L43.5,12 L34.5,12 C32.8431,12 31.5,10.6569 31.5,9 L31.5,0 Z" id="路径" fill="#D9D9D9" opacity="0.400000006"></path>
            </g>
        </g>
    </g>
</svg>