<?xml version="1.0" encoding="UTF-8"?>
<svg width="48px" height="48px" viewBox="0 0 48 48" version="1.1" xmlns="http://www.w3.org/2000/svg" xmlns:xlink="http://www.w3.org/1999/xlink">
    <title>未知类型</title>
    <g id="法律咨询" stroke="none" stroke-width="1" fill="none" fill-rule="evenodd">
        <g id="法律咨询-指定律师-聊天结束" transform="translate(-1103.000000, -700.000000)" fill-rule="nonzero">
            <g id="主内容" transform="translate(350.000000, 160.000000)">
                <g id="编组-4" transform="translate(30.000000, 87.000000)">
                    <g id="答1备份-2" transform="translate(471.000000, 419.000000)">
                        <g id="未知类型" transform="translate(252.000000, 34.000000)">
                            <rect id="矩形" fill="#000000" opacity="0" x="0" y="0" width="48" height="48"></rect>
                            <path d="M7.5,0 L31.5,0 L43.5,12 L43.5,45 C43.5,46.6569 42.1569,48 40.5,48 L7.5,48 C5.8431,48 4.5,46.6569 4.5,45 L4.5,3 C4.5,1.3431 5.8431,0 7.5,0 Z" id="路径" fill="#F2F2F2"></path>
                            <path d="M24.714,32.781 L24.714,32.298 C24.714,31.731 24.84,31.227 25.113,30.765 C25.323,30.387 25.638,30.009 26.1,29.61 C27.024,28.791 27.591,28.245 27.801,27.993 C28.326,27.3 28.599,26.481 28.599,25.536 C28.599,24.276 28.2,23.289 27.423,22.575 C26.604,21.819 25.533,21.462 24.189,21.462 C22.677,21.462 21.501,21.924 20.661,22.848 C19.821,23.73 19.422,24.906 19.422,26.376 L21.081,26.376 C21.081,25.347 21.312,24.549 21.774,23.961 C22.278,23.268 23.055,22.932 24.105,22.932 C24.987,22.932 25.68,23.163 26.163,23.667 C26.625,24.129 26.877,24.78 26.877,25.62 C26.877,26.208 26.667,26.754 26.247,27.279 C26.121,27.447 25.869,27.699 25.533,28.035 C24.399,29.043 23.706,29.841 23.412,30.471 C23.16,30.996 23.034,31.605 23.034,32.298 L23.034,32.781 L24.714,32.781 Z M23.874,36.75 C24.231,36.75 24.525,36.624 24.777,36.393 C25.029,36.162 25.155,35.868 25.155,35.49 C25.155,35.133 25.029,34.839 24.798,34.608 C24.546,34.356 24.231,34.251 23.874,34.251 C23.517,34.251 23.223,34.356 22.971,34.608 C22.719,34.839 22.614,35.133 22.614,35.49 C22.614,35.847 22.719,36.141 22.971,36.393 C23.223,36.624 23.517,36.75 23.874,36.75 Z" id="？" fill="#AFAFAF"></path>
                            <path d="M31.5,0 L43.5,12 L34.5,12 C32.8431,12 31.5,10.6569 31.5,9 L31.5,0 Z" id="路径" fill="#D9D9D9" opacity="0.400000006"></path>
                        </g>
                    </g>
                </g>
            </g>
        </g>
    </g>
</svg>