<svg t="1659750432286" class="icon" viewBox="0 0 1080 1024" version="1.1" xmlns="http://www.w3.org/2000/svg" p-id="36128" width="64" height="64"><path d="M511.991751 1008.640247v0.28444c-28.89909 1.479087-60.358139 2.275519-94.661586 2.275519C6.826557 1011.200206 0 942.877751 0 788.88201c0-105.697853 44.258842-239.498364 169.867485-312.997624a300.880486 300.880486 0 1 1 84.763079 79.870714c-110.81777 43.633075-148.818936 140.228852-148.818935 215.036535 0 99.895279 4.892366 144.154122 300.368494 144.154122 36.806518 0 69.118886-1.137759 97.449096-3.242614A48.923656 48.923656 0 1 1 511.991751 1008.640247zM416.988837 492.666338a189.436948 189.436948 0 1 0 0-378.873896 189.436948 189.436948 0 0 0 0 378.873896zM1080.871475 767.947236c0 32.25548-26.452907 58.537724-58.708388 58.537724h-138.806652v138.806653a58.594612 58.594612 0 0 1-58.594612 58.594611 58.594612 58.594612 0 0 1-58.537723-58.594611v-138.806653h-138.806653a58.594612 58.594612 0 0 1-58.594611-58.594612 58.594612 58.594612 0 0 1 58.594611-58.480835h138.806653v-138.863541A58.594612 58.594612 0 0 1 824.875599 512.008249a58.594612 58.594612 0 0 1 58.480836 58.537723v138.806653h139.034204A58.594612 58.594612 0 0 1 1080.871475 768.004124z" p-id="36129"></path></svg>