<?xml version="1.0" encoding="UTF-8"?>
<svg width="48px" height="48px" viewBox="0 0 48 48" version="1.1" xmlns="http://www.w3.org/2000/svg" xmlns:xlink="http://www.w3.org/1999/xlink">
    <title>WORD</title>
    <g id="法律咨询" stroke="none" stroke-width="1" fill="none" fill-rule="evenodd">
        <g id="法律咨询-指定律师-聊天结束" transform="translate(-1305.000000, -765.000000)" fill-rule="nonzero">
            <g id="WORD" transform="translate(1305.000000, 765.000000)">
                <rect id="矩形" fill="#000000" opacity="0" x="0" y="0" width="48" height="48"></rect>
                <path d="M7.5,0 L31.5,0 L43.5,12 L43.5,45 C43.5,46.6569 42.1569,48 40.5,48 L7.5,48 C5.8431,48 4.5,46.6569 4.5,45 L4.5,3 C4.5,1.3431 5.8431,0 7.5,0 Z" id="路径" fill="#375593"></path>
                <polygon id="路径" fill="#FFFFFF" points="17.3079018 23.1448165 14.8479018 23.1448165 18.9479018 37.4248165 21.2879018 37.4248165 24.1879018 26.4048165 24.2679018 26.4048165 27.1679018 37.4248165 29.4879018 37.4248165 33.6079018 23.1448165 31.1479018 23.1448165 28.3679018 34.2648165 28.2879018 34.2648165 25.3679018 23.1448165 23.0879018 23.1448165 20.1679018 34.2648165 20.0879018 34.2648165"></polygon>
                <path d="M31.5,0 L43.5,12 L34.5,12 C32.8431,12 31.5,10.6569 31.5,9 L31.5,0 Z" id="路径" fill="#FFFFFF" opacity="0.400000006"></path>
            </g>
        </g>
    </g>
</svg>