<?xml version="1.0" encoding="UTF-8"?>
<svg width="48px" height="48px" viewBox="0 0 48 48" version="1.1" xmlns="http://www.w3.org/2000/svg" xmlns:xlink="http://www.w3.org/1999/xlink">
    <title>压缩包</title>
    <g id="法律咨询" stroke="none" stroke-width="1" fill="none" fill-rule="evenodd">
        <g id="法律咨询-指定律师-聊天结束" transform="translate(-1620.000000, -765.000000)">
            <g id="压缩包" transform="translate(1620.000000, 765.000000)">
                <rect id="矩形" fill="#000000" fill-rule="nonzero" opacity="0" x="0" y="0" width="48" height="48"></rect>
                <path d="M7.5,0 L31.5,0 L43.5,12 L43.5,45 C43.5,46.6569 42.1569,48 40.5,48 L7.5,48 C5.8431,48 4.5,46.6569 4.5,45 L4.5,3 C4.5,1.3431 5.8431,0 7.5,0 Z" id="路径" fill="#845A34" fill-rule="nonzero"></path>
                <path d="M15,21.7894737 L15,25.4210526 L18.75,25.4210526 L18.75,34.5 L11.25,34.5 L11.25,21.7894737 L15,21.7894737 Z M18.75,18.1578947 L18.75,21.7894737 L15,21.7894737 L15,18.1578947 L18.75,18.1578947 Z M15,14.5263158 L15,18.1578947 L11.25,18.1578947 L11.25,14.5263158 L15,14.5263158 Z M18.75,10.8947368 L18.75,14.5263158 L15,14.5263158 L15,10.8947368 L18.75,10.8947368 Z M15,7.26315789 L15,10.8947368 L11.25,10.8947368 L11.25,7.26315789 L15,7.26315789 Z M18.75,3.63157895 L18.75,7.26315789 L15,7.26315789 L15,3.63157895 L18.75,3.63157895 Z M15,0 L15,3.63157895 L11.25,3.63157895 L11.25,0 L15,0 Z" id="形状结合" fill="#FFFFFF"></path>
                <path d="M31.5,0 L43.5,12 L34.5,12 C32.8431,12 31.5,10.6569 31.5,9 L31.5,0 Z" id="路径" fill="#FFFFFF" fill-rule="nonzero" opacity="0.400000006"></path>
            </g>
        </g>
    </g>
</svg>