
<svg width="97px" height="94px" viewBox="0 0 97 94" version="1.1" xmlns="http://www.w3.org/2000/svg" xmlns:xlink="http://www.w3.org/1999/xlink">
    <g id="页面-1" stroke="none" stroke-width="1" fill="none" fill-rule="evenodd">
        <g id="logo_blue-23eaf34d-2" fill="#1B3882" fill-rule="nonzero">
            <g id="logo_blue-23eaf34d">
                <path d="M25,79.4182779 C25,79.4182779 34.9332563,78.3545695 35.4853477,78.1773317 C36.0375365,78 46.3387888,78.5319012 46.3387888,78.5319012 L52.959302,80.1274169 L59.0276264,82.2548338 L60.6839979,82.7866411 L69.696972,79.5955157 L80.5504131,78 L87.9070156,78.1773317 L93.6071491,78.8864707 L96,79.5955157 L95.8157095,89.1634441 L90.8466924,87.9226857 L81.281432,87.2135468 L74.6610162,87.7451662 L68.9607852,88.9868638 L63.8127431,90.5817221 L60.1318091,92 L52.4071132,89.1634441 L43.0260457,87.3910663 L32.1726046,87.3910663 L25,88.6318247 L25,79.4182779 Z" id="路径" fill-opacity="0.5"></path>
                <path d="M59.5280934,94 C42.8684074,85.2578143 25.1748313,90.5005335 24.9965744,90.5542291 L23,91.1606181 L23,79.1229164 L24.0593414,78.7976882 C24.8284204,78.5598541 43.1536184,73.0992977 61,82.4624072 L59.5280934,85.0152587 C45.2061471,77.5017746 30.1253218,80.3218076 26.0559159,81.2925856 L26.0559159,87.2630642 C31.3731201,86.059544 46.3469913,83.7535067 61,91.4420567 L59.5280934,93.9953711 L59.5280934,94 Z" id="路径"></path>
                <path d="M59.4719028,94 L58,91.4468327 C72.6529713,83.7555669 87.6268042,86.061752 92.9438977,87.2656394 L92.9438977,81.293895 C88.8794564,80.3180054 73.7938125,77.5019277 59.4719028,85.0180743 L58,82.4640736 C75.8463359,73.0981078 94.1717786,78.5603299 94.9401756,78.7982366 L96,79.123564 L96,91.1699387 L94.0037221,90.5531779 C93.8298371,90.499466 76.1366948,85.2560735 59.4719028,94 Z" id="路径"></path>
                <path d="M78.9949171,65.8850133 C79,64.8129274 78.6105692,63.8939698 77.8213461,63.0935569 C77.0422889,62.3327218 76.0993072,61.9720931 75.0128303,62.0016822 C73.9007433,62.0758434 72.9526786,62.5056389 72.1531919,63.2565796 C71.3741347,64.1656428 70.9949675,65.1142837 71,66.1913639 C70.9949675,67.223872 71.3741347,68.1428297 72.1377476,68.8987647 C72.9168048,69.6990833 73.8700502,70.0647064 74.9974837,69.9906394 C76.0942242,69.9955395 77.037206,69.565744 77.8110825,68.7357421 C78.6003055,67.9057401 78.9898341,66.9521991 79,65.880019 L78.9949171,65.8850133 Z" id="路径" fill-opacity="0.5"></path>
                <path d="M47.8286395,68.7311299 C48.6163418,67.8974289 49.0051198,66.9843144 49,65.9024341 C49.0051198,64.8255704 48.6163418,63.8231037 47.8388833,62.9794643 C47.005035,62.294652 46.0741141,61.9720757 45.0307061,62.0018913 C43.8848597,62.1160424 42.9386218,62.5079992 42.1764803,63.1829676 C41.3990219,64.0166685 41.0102438,65.0091966 41,66.1307364 C41,67.2076001 41.3938512,68.1306532 42.1713096,68.894879 C42.9233048,69.698859 43.8695427,70.0610948 44.9897307,69.9916198 C46.1457234,69.9568822 47.081815,69.5649254 47.8234688,68.7311299 L47.8286395,68.7311299 Z" id="路径" fill-opacity="0.5"></path>
                <path d="M59.4902717,80 C56.397351,80 53.3610667,79.7544252 51.0349469,79.1845717 C44.7769601,77.6519075 39.7954044,74.8862161 35.8069992,70.7254048 C31.6641933,66.3976289 31.401722,62.2269797 31.1238401,57.8107556 C31.0877184,57.245868 31.051793,56.6710486 31.005463,56.086485 C30.6349211,51.1986936 28.2161413,43.5599209 28.1904242,43.4861829 L28,42.8869091 L28.3859525,42.3809557 C31.9471794,37.7534492 36.3370459,34.4474182 41.8178271,32.2662903 C46.8509152,30.2620588 52.8412283,29.2156721 60.1335914,29.0634176 C72.2737225,28.3855337 85.5100687,33.2045529 91.6132622,40.5288849 L92,40.990708 L89.2359045,53.2962454 C89.2054759,53.9594192 88.9993466,57.4226706 88.0008957,64.5014278 C86.8275293,72.7935364 76.0974206,77.5389113 70.58572,78.8849348 C67.78619,79.5726567 63.5816435,80 59.4851676,80 L59.4902717,80 Z M30.8921901,43.3633486 C31.4891797,45.3234497 33.290357,51.5081685 33.6248754,55.8998444 C33.6712054,56.494246 33.7072289,57.0836818 33.7432525,57.6585011 C34.0109261,61.9617289 34.2269692,65.3610802 37.7419642,69.035614 C41.3752381,72.8279225 45.9349159,75.3577834 51.6833707,76.7627412 C56.5568558,77.9565102 65.341693,77.5880075 69.9373944,76.4582322 C73.8948802,75.4904556 84.3882347,71.3885786 85.4072004,64.1575669 C86.4828026,56.5483081 86.6216945,53.114477 86.6268968,53.0800909 L86.6268968,52.9720605 L89.1789736,41.6243679 C85.1652439,34.2656497 82.7825858,32.7575337 77.6773525,30.9202668 C72.2943354,28.9799353 65.7327497,31.2395796 60.262275,31.5490545 L60.215945,31.5490545 C46.2694343,31.8389471 36.0436552,27.5700117 30.8870859,43.3584765 L30.8921901,43.3633486 Z" id="形状"></path>
                <path d="M87.0519461,42.3540289 C88.0371657,44.8153164 88.4558281,46.0484633 89.3799035,48.3018491 C89.3799035,48.3018491 91.824697,44.4934986 92.5958147,41.7696183 C93.3718005,39.0160784 92.8966674,35.509804 92.2891202,32.2313619 C90.7634366,26.7292882 89.5785248,26.3032834 84.9999163,23.0446774 C82.9682354,21.6927026 80.6710448,20.4942218 78.0728066,19.4393168 C72.4525078,17.3841035 66.8066997,16.2450366 61.1250619,16.0072863 C55.4946373,15.9132063 49.8130969,16.7303609 44.1213333,18.4488321 C41.4770423,19.3402306 39.1187075,20.4099654 37.030848,21.6481185 C32.2732857,24.6344026 28.9603032,28.8389092 27.1175073,34.2370793 C26.6223173,36.2675446 25.8362057,38.2187599 26.0301535,40.1007375 C26.9183993,48.7326712 32.7224228,52.52128 32.3243041,50.4412243 C31.8087652,47.7570163 32.1405794,46.1722975 32.8500661,43.6069175 C34.1977695,38.7535801 37.3881714,35.1680556 42.4265296,32.88501 L42.4418157,32.88501 C43.4219724,32.6175999 48.3888659,29.8789843 54.9841613,33.1525146 C56.7350462,33.880501 59.7979022,35.8515524 61.3293302,35.8069683 C62.8658211,35.7623842 65.0761637,34.326153 66.6841193,33.3505926 C69.70618,31.5131991 72.569928,30.8842989 76.3524938,32.0481137 C81.8503096,33.7269126 85.2245335,37.5205277 87.0519461,42.3589407 L87.0519461,42.3540289 Z" id="路径"></path>
                <path d="M5.07184252,38.2230169 L9.22560215,39.3870456 L13.9898032,39.1522435 L17.4102702,36.9365963 L21.0769287,33.7917224 L23.7641032,30.294692 L27.1846681,26.915016 L30.4820883,24.9341708 L35,24 L31.943685,29.1257191 L29.3795574,31.5712242 L24.0052085,38.6777885 L21.5641276,42.1749122 L18.7539063,44.0383096 L14.7230957,46.6011692 C14.7230957,46.6011692 11.179484,47.3006312 10.8154298,47.4179856 C10.4512777,47.53534 7.51800954,48 7.51800954,48 L4.95388189,47.8826456 L3,47.3006312 L4.83073725,43.8036009 L5.07692872,41.240648 L5.07692872,38.2132218 L5.07184252,38.2230169 Z" id="路径" fill-opacity="0.5"></path>
                <polygon id="路径" fill-opacity="0.5" points="15.6890386 18 15.3152013 20.6245396 14.3290274 22.4574802 13.0936616 24.1703539 10 25.8832277 13.7113445 27.596193 17.7911801 29.0835755 21.9956611 29.8847835 23.8488087 30 28.3023825 27.1403601 33 23.2539294 31.390896 22.7980965 25.5824592 22.2271386 21.2534318 20.7397561 18.1597701 19.2571324"></polygon>
                <path d="M6.73491786,48.9951479 C5.44812052,48.9951479 4.09500146,48.9218065 2.67556067,48.7798824 L0,48.4863301 L1.3173774,47.6742559 L2.02198488,46.9453205 C2.11898406,46.8034898 2.39985317,46.3337688 2.86449481,45.3456191 L2.86449481,45.3358216 C3.61506978,43.7898666 3.87548726,41.2019222 3.64574723,37.6452365 L3.48739315,35.2529626 L5.41237886,36.7793226 C7.42423531,38.3741719 9.94660351,38.7558085 13.1174833,37.9339367 C15.9513006,37.1609592 19.0353097,34.6267612 22.2726085,30.4097229 C25.2493926,26.305216 29.5334256,23.5215079 35.0172877,22.1321265 L35.5330585,22 L39,24.5880377 L35.8853135,24.3727722 C35.594316,24.6417841 35.3032211,24.9304843 35.0377394,25.2484837 L34.9764819,25.3218251 L34.8947727,25.3903145 C33.1075921,28.4332369 30.5494822,31.4370626 27.9913724,34.7246431 L27.9556307,34.7833349 C27.5624724,35.4437809 27.1590882,36.1286741 26.7199624,36.8087151 L26.7199624,36.8429598 L26.5769958,37.0630774 C23.957531,41.1432304 21.0777462,44.2008025 18.0141888,46.1576934 C15.2007257,48.046095 11.4171734,49 6.73491786,49 L6.73491786,48.9951479 Z M4.51883723,46.8523841 C9.80363684,47.180181 13.9241542,46.377811 16.7835848,44.4503126 L16.8040364,44.435663 C19.5765962,42.6695904 22.2164152,39.8662872 24.6520101,36.109079 C24.6979776,35.9818979 24.7642993,35.8743118 24.8357826,35.7911729 C25.2698442,35.1209294 25.6782926,34.4310908 26.0766125,33.7608473 L26.0766125,33.7510497 C27.8075024,30.5711486 29.7989072,27.7434916 32.0200521,25.3218251 C28.7062057,26.721004 26.0816767,28.8002239 24.049466,31.6034338 L24.034176,31.6278809 C20.4548478,36.2998974 17.0746797,39.0151162 13.7046399,39.9347765 C10.7278559,40.7029019 8.11355277,40.5659233 5.89747214,39.528786 C5.94343962,42.4543249 5.59624879,44.6509284 4.84567382,46.2017356 C4.73328722,46.4463003 4.62606222,46.6615657 4.52906305,46.8523841 L4.51883723,46.8523841 Z" id="形状"></path>
                <path d="M7.04928597,48 C5.76577831,48 4.41601632,47.9287164 3,47.7907746 L3.22411839,45.7889398 C9.27502348,46.3833323 13.9304103,45.641566 17.0679706,43.5826863 L17.0934231,43.5684477 C19.8591043,41.8519286 22.492374,39.1272821 24.9219261,35.4754958 C25.0084842,35.2520318 25.1460445,35.0998514 25.2682556,35 L26.6791231,36.521623 C26.893041,36.3456813 26.9847479,36.1079788 27,35.9415598 L26.9796963,36.1839783 L26.8421359,36.3980104 C24.2292672,40.3635894 21.3565299,43.3354611 18.3005732,45.2373538 C15.4940902,47.0727695 11.7199249,48 7.04928597,48 Z" id="路径"></path>
                <path d="M25.1917174,28.802277 C24.7376398,28.8322174 24.2834659,28.8571202 23.829292,28.8720429 C20.2315113,28.9966522 16.3914853,28.0050059 12.3900586,25.9269496 C15.8566592,23.7143038 16.8204433,21.1926538 16.6841623,18.9203173 C17.5117615,19.5680762 18.374586,20.1361841 19.2728281,20.6196033 C25.1564922,23.8936613 31.3731593,24.4119635 42,21.4767552 L41.2784612,19.4883301 C31.1813457,22.2392383 25.7115294,21.7857595 20.3072551,18.7757477 C18.7732273,17.9534788 17.3502647,16.8472034 16.0786934,15.4966522 L15.9323067,15.3421975 L13.7423784,13 L14.1561299,16.0100118 C14.2166671,16.2591353 15.4731282,22.1345894 9.73585077,25.0000317 L8,25.8670687 L9.6753135,26.8488298 C14.3680584,29.6046806 18.9195176,31 23.2087129,31 L25.1917174,28.8073145 L25.1917174,28.802277 Z" id="路径"></path>
                <path d="M53.1559168,61 C52.4599795,61 51.8062751,60.601887 51.4847019,59.9317902 C49.9926751,56.7953187 48.8223219,55.4892042 47.0561836,53.5130855 C45.2689289,51.5176121 41.462541,48.1383278 40.8351818,47.6478866 C39.9969599,46.9924216 39.7596514,46.0990518 40.2605131,45.4824813 C40.5136087,45.1766038 41.2622365,44.5599407 42.8016245,45.501836 C45.9226334,47.4051664 52.8501307,53.1295116 54.7216501,57.7274904 C55.4070292,59.3977316 54.7216501,60.5339142 53.8042919,60.8785936 C53.5882004,60.9611055 53.3720083,60.9950919 53.1505874,60.9950919 L53.1559168,61 Z" id="路径"></path>
                <path d="M65.8190511,60.9951424 C65.6002448,60.9951424 65.3761721,60.9559084 65.1573659,60.8677252 C64.2509396,60.5102282 63.5944215,59.3544114 64.2925744,57.6793973 C66.2045952,53.0657521 73.1282927,47.3746649 76.2385808,45.4890947 C77.775491,44.5585002 78.5048452,45.1854044 78.7496856,45.4988098 C79.2393664,46.125714 78.994526,47.0220255 78.1557687,47.6734043 C77.5305512,48.1631761 73.722309,51.5180619 71.9301248,53.5163833 C70.1588077,55.4901368 68.9865746,56.7928944 67.4653644,59.9420816 C67.1423221,60.6082199 66.501504,61 65.8242181,61 L65.8190511,60.9951424 Z" id="路径"></path>
                <path d="M72.9987293,9.48164218 C73.0454971,7.16172501 71.8013345,5.16307982 69.2659435,3.4904829 C66.6890474,1.85095941 63.6123017,1.02412338 60.0358058,1.00051236 C56.4593099,0.976811231 53.3930895,1.7753501 50.8681245,3.40541116 C48.3276695,5.04971091 47.0313771,7.02465497 47,9.3257374 C47.0104259,10.0438907 47.0781449,10.7006734 47.1770425,11.31483 C56.6571049,8.54612339 65.1481922,8.77286121 72.6343177,12 C72.8373754,11.1400004 72.9622881,10.3037019 72.9987293,9.47686591 L72.9987293,9.48164218 Z" id="路径" fill-opacity="0.5"></path>
                <path d="M33.8552321,58.2897033 L33.8079603,58.1874805 C33.6822352,57.919807 33.5722008,57.6471198 33.4831539,57.3794463 L33.2159132,56.5810681 L31.4500658,56.63464 L31.3138469,58.0121882 C31.3243407,58.06576 31.355722,58.1972292 31.3872032,58.4309213 L31.3872032,58.4795723 C31.4028939,58.5622976 31.4081907,58.6304462 31.4238814,58.6985948 C31.4500658,59.4288244 31.2143063,60.0080873 30.6798249,60.5192016 C30.1716278,61.0205671 29.5061245,61.2445104 28.6310461,61.2104361 C27.5463926,61.171441 27.1849081,60.7674704 27.0067143,60.4656297 C26.5298985,59.6673444 26.4984173,59.2389554 26.5247016,59.0490864 C26.5927611,58.5282233 26.7079924,57.9782068 26.8704955,57.4232694 C27.1219456,56.5567426 26.933358,55.5490907 26.299336,54.434388 L25.6496232,53.290439 C25.4032701,52.857222 25.1884981,52.3120334 25.0103043,51.6694499 C24.8740855,51.1290893 24.9107637,50.4816779 25.1151418,49.7368715 C25.2985325,49.0797113 25.6914983,48.563769 26.3150266,48.1548775 C26.9385549,47.7653908 27.6826114,47.6242657 28.5681836,47.7313165 L28.6363429,47.7410653 L28.7044024,47.7410653 C29.5741839,47.7459861 30.2868591,47.8238834 30.8318343,47.9601806 C30.6798249,47.1715512 30.632653,46.3488475 30.7113061,45.511567 C30.1401466,45.2877166 29.5637901,45.1319219 28.9821368,45.0588525 L28.9507555,45.0588525 L28.5210117,45.0247782 C27.2267831,44.9128066 25.9639359,45.1805729 24.769248,45.8231564 C23.5326851,46.4948934 22.6995817,47.4879685 22.2961222,48.7779635 C21.9503283,49.902415 21.9083533,51.0609407 22.1651003,52.2146385 C22.1965815,52.3898379 22.2384565,52.5942837 22.3118128,52.7890735 C22.5056972,53.3585876 22.8253067,53.9914223 23.2654444,54.672908 C23.9361446,55.6999646 24.1405228,56.0358795 24.1981884,56.1478512 L24.219076,56.1867534 C24.302926,56.3279714 24.3187166,56.5421659 24.2610509,56.824509 L24.2400634,56.916983 C24.1772009,57.2334004 24.1143384,57.5303202 24.088154,57.6422919 C23.5641663,58.9030405 23.5116976,60.0664871 23.9256509,61.0838877 C24.3449009,62.1645161 25.0836606,62.9531456 26.1316359,63.4399344 C26.7394736,63.7173566 27.4416551,63.8926489 28.2223897,63.9656254 C28.6468367,64.0046205 29.0921712,64.0094485 29.5584933,63.985123 C31.0727906,63.9120536 32.3041567,63.2451446 33.1163725,62.0720421 C33.9127978,60.9573393 34.1695447,59.7209162 33.8919102,58.401675 L33.8709227,58.2897033 L33.8552321,58.2897033 Z" id="路径"></path>
                <path d="M96.6803401,47.6580896 C96.2967042,46.3993023 95.4994168,45.4238704 94.3091137,44.756079 L94.3044238,44.756079 C93.2379347,44.1602261 92.0964068,43.9152684 90.9061036,44.0257881 C90.8620183,44.0257881 90.817933,44.0353188 90.7738477,44.0401758 L90.379894,44.0881959 L90.3461265,44.0881959 C89.5882345,44.2083379 88.8312805,44.4870196 88.0935552,44.9049964 C88.0984327,44.9627305 88.1082816,45.0251384 88.1181304,45.0827809 C88.1869785,45.8179288 88.1525545,46.5434544 88.0247071,47.2497352 L88.4525221,47.0815731 C88.9982419,46.8653909 89.7411261,46.6876064 90.7194446,46.5434544 L90.7738477,46.533832 C91.5214219,46.384823 92.1658177,46.5194443 92.7952057,46.9662881 C93.4583612,47.437142 93.9067181,48.0232809 94.16185,48.7488065 C94.3738347,49.4310773 94.4029122,50.0172162 94.2556486,50.5361819 C94.0736794,51.1848202 93.8673227,51.7613368 93.6403303,52.24667 C93.3701906,52.8039419 93.094423,53.3469176 92.8242832,53.8417816 C92.4162597,54.5816949 92.268996,55.3841077 92.3918721,56.2201528 C92.4950504,56.9504438 92.6029187,57.5558274 92.7257948,58.0747931 C92.8149034,58.4351273 92.7605002,58.8963589 92.5682133,59.4441 L92.5588334,59.4681101 C92.4012519,59.9582087 91.5551893,60.2225027 91.0636851,60.3377877 C89.9427929,60.5972247 89.4409708,60.1984927 89.1408156,59.8380667 C88.6296137,59.1942853 88.3886453,58.4976268 88.4033717,57.7144588 L88.4229756,57.4885625 C88.4476446,57.2627579 88.4722198,57.147473 88.4820686,57.1042182 L88.4475508,55.7012788 L86.6083495,55.7445336 L86.411654,56.5132223 C86.3428059,56.7775163 86.2542601,57.0369533 86.1411391,57.2963904 L86.0919887,57.40691 L86.072291,57.527052 C85.8558979,58.805084 86.1264128,60.0207082 86.8690156,61.1449658 L86.8886195,61.1689759 C87.7000704,62.3125699 88.860358,62.9419636 90.2429481,62.9899837 C90.6115763,63.0092284 90.9698866,62.999606 91.3094372,62.9708306 C92.1264223,62.8987088 92.8542988,62.6872919 93.4780589,62.3462023 C94.3982223,61.8513383 95.0519979,61.0584563 95.4356339,59.9870758 C95.7995721,58.9348483 95.7254713,57.791346 95.2189593,56.5853441 L95.0960832,55.8742063 L95.0867034,55.8213291 C95.0276103,55.5667491 95.0519979,55.3168428 95.1504864,55.0670281 C95.3427733,54.6201843 95.6025952,54.1013103 95.9224481,53.5103144 C96.3407895,52.7895542 96.6109292,52.1794052 96.7581929,51.6604395 C96.8322937,51.4298696 96.8820069,51.228075 96.8960767,51.0262805 C97.0883637,49.8971659 97.0142628,48.7680512 96.6700223,47.667712 L96.6803401,47.6580896 Z" id="路径"></path>
                <path d="M73.6684093,12.25452 C73.8163395,11.4617961 73.9029969,10.7135849 73.9335361,9.96537376 C73.9845969,7.1806333 72.6027471,4.77259736 69.8185261,2.80543613 C67.1312719,0.972096674 63.8830302,0.0307133923 60.1657105,0.000943717155 C56.4381786,-0.033740317 53.2052065,0.887891021 50.5484915,2.72123047 C47.7694251,4.6486988 46.3416694,7.02214522 46.3059755,9.7770215 L46.3059755,9.80187682 C46.3110329,10.3518125 46.3468241,10.9018427 46.4182118,11.4766337 C46.1581424,11.7788668 46.0153669,12.1108695 46,12.4676331 L46,12.5072315 C46,13.438786 46.1377181,14.3703406 46.4283267,15.2721255 L46.4334814,15.2968863 C46.8311717,16.4365451 47.5145104,17.5216734 48.4680334,18.522596 L48.7434697,18.8099915 L51.2522545,19.0824549 C53.3938881,20.2914817 56.2545544,20.9405552 59.7730776,21 C59.9260654,21 60.0790531,21 60.2268861,21 C62.8224255,21 65.0915652,20.6928526 66.9782841,20.0882919 L67.0292476,20.0685399 C67.7380681,19.8009909 68.4264642,19.4789114 69.0842239,19.1073102 C71.0831793,19.2905591 72.5823228,18.3342437 73.3523189,16.3870235 L73.5410005,16.188748 L73.5307884,15.9112757 C73.8264544,15.0293373 74.3465933,13.3000499 73.6633518,12.25452 L73.6684093,12.25452 Z M51.797875,4.43067137 C54.0720721,2.85996661 56.8767175,2.07707141 60.1452862,2.10183222 C63.4138549,2.12659303 66.2490394,2.94417226 68.5590276,4.51487702 C70.7567795,6.06582984 71.807172,7.83972445 71.7714782,9.90592892 C71.7562086,10.2874533 71.7255721,10.6789009 71.6695512,11.0851861 C67.9572889,9.57392616 63.9951693,8.82080063 59.7985594,8.82080063 C56.1933788,8.82080063 52.4199408,9.38065954 48.4936124,10.4955575 C48.4782456,10.2576836 48.4680334,10.0199042 48.462976,9.78694473 C48.4936124,7.7158259 49.5847563,5.96177774 51.797875,4.43067137 Z M71.7511511,14.2811261 L71.0219064,15.8122325 C71.0219064,15.8122325 70.0683834,17.1500722 69.0281057,16.9815664 L68.6252607,16.9172072 L68.2785339,17.1253114 C67.646256,17.5068358 66.9731294,17.8338297 66.2745211,18.0964644 C64.5153082,18.6563233 62.3379806,18.9239668 59.8087715,18.8892828 C56.6778237,18.8297434 54.1690389,18.2847221 52.348553,17.2590387 C52.2925321,17.2243546 52.2364139,17.1896706 52.1853532,17.1649098 L51.9712871,17.0360969 L49.7989197,16.8032319 C49.3859598,16.332493 48.7994906,15.3414936 48.7994906,15.3414936 L48.2029066,13.6617278 C48.2029066,13.6617278 48.1722701,12.9482007 48.1672127,12.7847038 C56.9583174,10.0941867 64.9232106,10.3171285 71.8428659,13.4487093 C71.8530781,13.5726078 71.7511511,14.2811261 71.7511511,14.2811261 Z" id="形状"></path>
            </g>
        </g>
    </g>
</svg>